# xmcd
#
# Track frame offsets:
#	150
#	15445
#	35790
#	53432
#	73845
#	92102
#	108520
#	138597
#	151872
#	172617
#
# Disc length: 2461
#
# Revision: 1
# Processed by: cddbd v1.5.1PL0 Copyright (c) Steve Scherf et al.
# Submitted via: FreeRIP 2.51 
# Normalized: r0:TDELIM( - )
#
DISCID=78099b0a
DTITLE=Various Artist - Red Hot Christmas Blues
DYEAR=1998
DGENRE=Blues
TTITLE0=Charles Brown - Merry Christmas Baby
TTITLE1=Koko Taylor - Merry, Merry Christmas
TTITLE2=Little Milton - Lonesome Christmas
TTITLE3=Denise LaSalle - Santa's Got The Blues
TTITLE4=Dorothy Moore - All I Want For Christmas Is You
TTITLE5=Cicero Blake - Santa Claus Stole My Baby
TTITLE6=Ronnie Lovejoy - Someone To Spend Christmas With
TTITLE7=Li'l Ed and The Ble Imperials - I'm Your Santa
TTITLE8=Kenny Neal - Christmas Time In The Country
TTITLE9=Charles Brown - Please Come Home For Christmas
EXTD=
EXTT0=
EXTT1=
EXTT2=
EXTT3=
EXTT4=
EXTT5=
EXTT6=
EXTT7=
EXTT8=
EXTT9=
PLAYORDER=
